<?xml version="1.0" encoding="UTF-8"?>
<svg width="20px" height="20px" viewBox="0 0 20 20" version="1.1" xmlns="http://www.w3.org/2000/svg" xmlns:xlink="http://www.w3.org/1999/xlink">
    <title></title>
    <defs>
        <polygon id="path-1" points="0 20 20 20 20 0 0 0"></polygon>
        <path d="M16.8,15.2 C16.8,15.421 16.621,15.6 16.4,15.6 L3.6,15.6 C3.379,15.6 3.2,15.421 3.2,15.2 L3.2,4.8 C3.2,4.579 3.379,4.4 3.6,4.4 L8.709,4.4 C8.896,4.4 9.061,4.533 9.1,4.715 L9.347,5.854 C9.466,6.406 9.955,6.8 10.52,6.8 L16.4,6.8 C16.621,6.8 16.8,6.979 16.8,7.2 L16.8,15.2 L16.8,15.2 Z M13.1,4.715 L13.292,5.6 L10.52,5.6 L10.273,4.461 C10.268,4.439 10.254,4.422 10.248,4.4 L12.709,4.4 C12.896,4.4 13.061,4.533 13.1,4.715 L13.1,4.715 Z M16.4,5.6 L15.938,5.6 L14.52,5.6 L14.273,4.461 C14.114,3.725 13.463,3.2 12.709,3.2 L3.6,3.2 C2.716,3.2 2,3.916 2,4.8 L2,15.2 C2,16.084 2.716,16.8 3.6,16.8 L16.4,16.8 C17.284,16.8 18,16.084 18,15.2 L18,7.2 C18,6.316 17.284,5.6 16.4,5.6 L16.4,5.6 Z" id="path-3"></path>
    </defs>
    <g id="页面-1" stroke="none" stroke-width="0" fill="none" fill-rule="evenodd">
        <g id="数据资产-标签管理-标签管理" transform="translate(-262.000000, -163.000000)">
            <g id="内容" transform="translate(230.000000, 96.000000)">
                <g id="Tree-树/Basic/Collapse/1st/Expanding/2-Hover" transform="translate(10.000000, 62.000000)">
                    <g id="icon-folder" transform="translate(22.000000, 5.000000)">
                        <mask id="mask-2" fill="currentColor">
                            <use xlink:href="#path-1"></use>
                        </mask>
                        <g></g>
                        <mask id="mask-4" fill="currentColor">
                            <use xlink:href="#path-3"></use>
                        </mask>
                        <use fill="#8C8C8C" xlink:href="#path-3"></use>
                    </g>
                </g>
            </g>
        </g>
    </g>
</svg>