<?xml version="1.0" encoding="UTF-8"?>
<svg width="20px" height="20px" viewBox="0 0 20 20" version="1.1" xmlns="http://www.w3.org/2000/svg" xmlns:xlink="http://www.w3.org/1999/xlink">
    <title></title>
    <defs>
        <polygon id="path-1" points="0 20 20 20 20 0 0 0"></polygon>
        <path d="M11.1761203,16.1436 L11.1761203,12.8496 C11.1761203,12.6336 11.3691281,12.4496 11.5979953,12.4496 L15.0721359,12.4496 L11.1761203,16.1436 L11.1761203,16.1436 Z M4.865925,16.3996 L4.865925,3.5996 C4.865925,3.3836 5.05893281,3.1996 5.2878,3.1996 L15.4128,3.1996 C15.6416672,3.1996 15.834675,3.3836 15.834675,3.5996 L15.834675,11.2496 L11.5979953,11.2496 C10.6698703,11.2496 9.91049531,11.9696 9.91049531,12.8496 L9.91049531,16.7996 L5.2878,16.7996 C5.05893281,16.7996 4.865925,16.6166 4.865925,16.3996 L4.865925,16.3996 Z M15.4128,1.9996 C16.340925,1.9996 17.1003,2.7196 17.1003,3.5996 L17.1003,3.5996 L17.1003,11.5616 C17.1003,11.9856 16.9220578,12.3926 16.6056516,12.6926 L16.6056516,12.6926 L11.5020188,17.5316 C11.1856125,17.8316 10.7563547,17.9996 10.3091672,17.9996 L10.3091672,17.9996 L5.2878,17.9996 C4.359675,17.9996 3.6003,17.2796 3.6003,16.3996 L3.6003,16.3996 L3.6003,3.5996 C3.6003,2.7196 4.359675,1.9996 5.2878,1.9996 L5.2878,1.9996 Z M10.7013,8.5598 L6.83376094,8.5598 C6.48465938,8.5598 6.20094844,8.8278 6.20094844,9.1598 C6.20094844,9.4908 6.48465938,9.7598 6.83376094,9.7598 L10.7013,9.7598 C11.0514563,9.7598 11.3341125,9.4908 11.3341125,9.1598 C11.3341125,8.8278 11.0514563,8.5598 10.7013,8.5598 Z M13.8658898,5.4089 L6.83428828,5.4089 C6.48413203,5.4089 6.20147578,5.6769 6.20147578,6.0089 C6.20147578,6.3399 6.48413203,6.6089 6.83428828,6.6089 L13.8658898,6.6089 C14.2149914,6.6089 14.4987023,6.3399 14.4987023,6.0089 C14.4987023,5.6769 14.2149914,5.4089 13.8658898,5.4089 Z" id="path-3"></path>
    </defs>
    <g id="页面-1" stroke="none" stroke-width="0" fill="none" fill-rule="evenodd">
        <g id="数据资产-标签管理-标签管理" transform="translate(-278.000000, -223.000000)">
            <g id="内容" transform="translate(230.000000, 96.000000)">
                <g id="Tree-树/Basic/Collapse/1st/Collapsing/1-Normal备份-2" transform="translate(10.000000, 122.000000)">
                    <g id="icon-book" transform="translate(38.000000, 5.000000)">
                        <mask id="mask-2" fill="currentColor">
                            <use xlink:href="#path-1"></use>
                        </mask>
                        <g></g>
                        <mask id="mask-4" fill="currentColor">
                            <use xlink:href="#path-3"></use>
                        </mask>
                        <use fill="#8C8C8C" xlink:href="#path-3"></use>
                    </g>
                </g>
            </g>
        </g>
    </g>
</svg>