<?xml version="1.0" encoding="UTF-8"?>
<svg width="18px" height="18px" viewBox="0 0 18 18" version="1.1" xmlns="http://www.w3.org/2000/svg" xmlns:xlink="http://www.w3.org/1999/xlink">
    <title>icon_calendar_n@2x</title>
    <g id="页面-1" stroke="none" stroke-width="1" fill="none" fill-rule="evenodd">
        <g id="元数据-发文管理" transform="translate(-1041.000000, -133.000000)">
            <g id="日历选择器" transform="translate(779.000000, 126.000000)">
                <g id="下拉框" transform="translate(70.000000, 0.000000)">
                    <g id="icon_calendar_n" transform="translate(192.000000, 7.000000)">
                        <rect id="矩形" fill-opacity="0.01" fill="#FFFFFF" fill-rule="nonzero" x="0" y="0" width="18" height="18"></rect>
                        <path d="M1.875,7.125 L16.125,7.125 L16.125,15 C16.125,15.414225 15.789225,15.75 15.375,15.75 L2.625,15.75 C2.21078625,15.75 1.875,15.414225 1.875,15 L1.875,7.125 Z" id="路径" stroke="#666666" stroke-width="1.2" stroke-linejoin="round"></path>
                        <path d="M1.875,3.375 C1.875,2.96078625 2.21078625,2.625 2.625,2.625 L15.375,2.625 C15.789225,2.625 16.125,2.96078625 16.125,3.375 L16.125,7.125 L1.875,7.125 L1.875,3.375 Z" id="路径" stroke="#666666" stroke-width="1.2" stroke-linejoin="round"></path>
                        <line x1="6" y1="1.5" x2="6" y2="4.5" id="路径" stroke="#666666" stroke-width="1.5" stroke-linecap="round" stroke-linejoin="round"></line>
                        <line x1="12" y1="1.5" x2="12" y2="4.5" id="路径" stroke="#666666" stroke-width="1.5" stroke-linecap="round" stroke-linejoin="round"></line>
                        <line x1="10.5" y1="12.75" x2="12.75" y2="12.75" id="路径" stroke="#666666" stroke-width="1.2" stroke-linecap="round" stroke-linejoin="round"></line>
                        <line x1="5.25" y1="12.75" x2="7.5" y2="12.75" id="路径" stroke="#666666" stroke-width="1.2" stroke-linecap="round" stroke-linejoin="round"></line>
                        <line x1="10.5" y1="9.75" x2="12.75" y2="9.75" id="路径" stroke="#666666" stroke-width="1.2" stroke-linecap="round" stroke-linejoin="round"></line>
                        <line x1="5.25" y1="9.75" x2="7.5" y2="9.75" id="路径" stroke="#666666" stroke-width="1.2" stroke-linecap="round" stroke-linejoin="round"></line>
                    </g>
                </g>
            </g>
        </g>
    </g>
</svg>