<?xml version="1.0" encoding="UTF-8"?>
<svg width="16px" height="16px" viewBox="0 0 16 16" version="1.1" xmlns="http://www.w3.org/2000/svg" xmlns:xlink="http://www.w3.org/1999/xlink">
    <title></title>
    <g id="页面-1" stroke="none" stroke-width="0" fill="none" fill-rule="evenodd">
        <g id="数据盘点-数据采集" transform="translate(-435.000000, -210.000000)">
            <g id="数据源/hover" transform="translate(240.000000, 158.000000)">
                <g id="基础信息" transform="translate(30.000000, 22.000000)">
                    <g id="ic-创建人员" transform="translate(165.000000, 30.000000)">
                        <rect id="矩形" fill="#D8D8D8" opacity="0" x="0" y="0" width="16" height="16"></rect>
                        <g id="编组" transform="translate(0.888889, 1.777778)" fill="#697A9A" fill-rule="nonzero">
                            <path d="M7.2770296,8.75422397 C7.2770296,7.1418203 8.07188927,5.71986745 9.27471954,4.88675223 C9.29580112,4.51545025 9.28635657,3.82907302 8.92763251,3.82907302 C8.92763251,3.82907302 8.72288827,3.87072878 8.80485343,3.57930987 C8.84583601,3.03829924 8.84583601,2.53877295 8.80485343,2.03941808 C8.76387085,1.70634341 8.84583601,0.749118014 8.19062069,0.624322153 C7.94489386,0.582837814 7.69916704,0.582837814 7.45360887,0.624322153 C7.16689946,0.624322153 6.88035871,0 6.47087022,0 L5.57009673,0.124795861 C5.16060824,0.124795861 5.20159082,0.249591723 4.99684657,0.291247484 C4.79210233,0.291247484 4.5463755,0.332903246 4.34163126,0.374387584 C3.68641594,0.540839207 3.44085777,1.45658027 3.39987519,1.78948351 C3.35889261,2.080731 3.35889261,3.03812782 3.35889261,3.53748269 C3.44085777,3.82890159 3.19513094,3.82890159 3.19513094,3.82890159 C2.78564245,3.78724583 2.94940412,5.11903024 2.94940412,5.11903024 C3.03136928,5.41044914 2.94940412,5.57690077 3.56363685,5.82666391 C3.7683811,6.36767454 4.13688701,6.78388931 4.58735808,7.07530822 C4.58735808,7.07530822 4.62834066,7.61631885 4.62834066,7.99104928 C4.58735808,7.94939352 4.83308491,8.94827467 2.94957277,9.23969358 C1.06589198,9.53111249 0.697386069,10.1552632 0.328880158,10.4883379 C-0.0396257539,10.8628969 0.00135682568,12.4444444 0.00135682568,12.4444444 L9.04299088,12.4444444 C7.97221558,11.5953869 7.2770296,10.2591455 7.2770296,8.75422397 Z" id="路径"></path>
                            <path d="M11.7434562,5.43581973 C9.88338675,5.43581973 8.37580123,6.92119904 8.37580123,8.75388112 C8.37580123,10.5860489 9.88338675,12.0719425 11.7434562,12.0719425 C13.6035256,12.0719425 15.1111111,10.5862204 15.1111111,8.75405254 C15.1111111,6.92137046 13.6035256,5.43581973 11.7434562,5.43581973 L11.7434562,5.43581973 Z M12.768358,9.60396722 C12.3581949,9.41025935 11.8620189,9.31340542 11.2793242,9.31340542 L11.2793242,10.2675452 L9.67155909,8.63337083 L11.2793242,6.99919646 L11.2793242,7.93139411 C12.0274671,8.04110476 12.6244973,8.35189445 13.0705834,8.86359177 C13.4374028,9.29506317 13.6856594,9.84344499 13.8151846,10.5087372 C13.5272946,10.0993794 13.1785211,9.79767508 12.768358,9.60396722 L12.768358,9.60396722 Z" id="形状"></path>
                        </g>
                    </g>
                </g>
            </g>
        </g>
    </g>
</svg>