<?xml version="1.0" encoding="UTF-8"?>
<svg width="16px" height="16px" viewBox="0 0 16 16" version="1.1" xmlns="http://www.w3.org/2000/svg" xmlns:xlink="http://www.w3.org/1999/xlink">
    <title></title>
    <g id="页面-1" stroke="none" stroke-width="0" fill="none" fill-rule="evenodd">
        <g id="数据盘点-数据采集" transform="translate(-270.000000, -210.000000)">
            <g id="数据源/hover" transform="translate(240.000000, 158.000000)">
                <g id="基础信息" transform="translate(30.000000, 22.000000)">
                    <g id="ic-创建时间" transform="translate(0.000000, 30.000000)">
                        <rect id="矩形" fill="#D8D8D8" opacity="0" x="0" y="0" width="16" height="16"></rect>
                        <g id="编组" transform="translate(2.000000, 1.000000)" fill="#697A9A" fill-rule="nonzero">
                            <path d="M6.5,0 C2.90138408,0 0,2.90305828 0,6.50375072 C0,10.1044432 2.93886967,13 6.5,13 C10.0986159,13 13,10.0969417 13,6.49624928 C13,2.89555684 10.0686275,0 6.5,0 Z M10.7358708,8.46912868 C10.6384083,8.67166763 10.4659746,8.76918638 10.2710496,8.76918638 C10.2035755,8.76918638 10.1361015,8.76918638 10.0686275,8.73918061 L6.23760092,6.99884593 C6.07266436,6.93133295 5.93771626,6.728794 5.93771626,6.53375649 L5.93771626,2.93306405 C5.93771626,2.66301212 6.17012687,2.4304674 6.44002307,2.4304674 C6.70991926,2.4304674 6.94232987,2.66301212 6.94232987,2.93306405 L6.94232987,6.23369879 L10.4734717,7.83150606 C10.7358708,7.92902481 10.8333333,8.19907675 10.7358708,8.46912868 Z" id="形状"></path>
                        </g>
                    </g>
                </g>
            </g>
        </g>
    </g>
</svg>