<?xml version="1.0" encoding="UTF-8"?>
<svg width="18px" height="18px" viewBox="0 0 18 18" version="1.1" xmlns="http://www.w3.org/2000/svg" xmlns:xlink="http://www.w3.org/1999/xlink">
    <title>更多@2x</title>
    <g id="页面-1" stroke="none" stroke-width="1" fill="none" fill-rule="evenodd">
        <g id="数据架构--uc矩阵/流程数据流/设备数据模型/部门/富文本" transform="translate(-344.000000, -209.000000)" fill-rule="nonzero">
            <g id="树状图" transform="translate(212.000000, 112.000000)">
                <g id="业务域a" transform="translate(10.000000, 90.000000)">
                    <g transform="translate(18.000000, 6.000000)" id="更多">
                        <g transform="translate(104.000000, 1.000000)">
                            <path d="M0,9 C0,13.9705627 4.02943725,18 9,18 C13.9705627,18 18,13.9705627 18,9 C18,4.02943725 13.9705627,0 9,0 C4.02943725,0 0,4.02943725 0,9 Z" id="路径" fill="#E0E2E6" opacity="0"></path>
                            <path d="M3.68672728,9.10227273 C3.68672728,9.50419653 3.90115105,9.87558944 4.24922727,10.0765513 C4.59730348,10.2775132 5.02615107,10.2775132 5.37422729,10.0765513 C5.7223035,9.87558944 5.93672728,9.50419653 5.93672728,9.10227273 C5.93672728,8.48095239 5.43304762,7.97727273 4.81172728,7.97727273 C4.19040693,7.97727273 3.68672728,8.48095239 3.68672728,9.10227273 L3.68672728,9.10227273 Z" id="路径" fill="#333333"></path>
                            <path d="M12.2678182,9.10227269 C12.2678182,9.50419647 12.4822419,9.87558937 12.8303182,10.0765513 C13.1783944,10.2775132 13.6072419,10.2775132 13.9553181,10.0765513 C14.3033943,9.87558937 14.5178181,9.50419647 14.5178181,9.10227269 C14.5178181,8.70034891 14.3033943,8.32895601 13.9553181,8.12799411 C13.6072419,7.92703222 13.1783944,7.92703222 12.8303182,8.12799411 C12.4822419,8.32895601 12.2678182,8.70034891 12.2678182,9.10227269 Z" id="路径" fill="#333333"></path>
                            <path d="M7.97727273,9.10227273 C7.97727273,9.72359308 8.48095239,10.2272727 9.10227273,10.2272727 C9.72359308,10.2272727 10.2272727,9.72359308 10.2272727,9.10227273 C10.2272727,8.48095239 9.72359308,7.97727273 9.10227273,7.97727273 C8.48095239,7.97727273 7.97727273,8.48095239 7.97727273,9.10227273 L7.97727273,9.10227273 Z" id="路径" fill="#333333"></path>
                        </g>
                    </g>
                </g>
            </g>
        </g>
    </g>
</svg>