<?xml version="1.0" encoding="UTF-8"?>
<svg width="16px" height="16px" viewBox="0 0 16 16" version="1.1" xmlns="http://www.w3.org/2000/svg" xmlns:xlink="http://www.w3.org/1999/xlink">
    <title></title>
    <g id="页面-1" stroke="none" stroke-width="0" fill="none" fill-rule="evenodd">
        <g id="数据盘点-数据采集" transform="translate(-1114.000000, -405.000000)">
            <g id="编组-5" transform="translate(230.000000, 211.000000)">
                <g id="作业备份" transform="translate(808.000000, 0.000000)">
                    <g id="编辑" transform="translate(76.000000, 194.000000)">
                        <rect id="矩形" fill-opacity="0" fill="currentColor" x="0" y="0" width="16" height="16"></rect>
                        <g id="编组" transform="translate(0.800000, 0.800000)" fill="currentColor" fill-rule="nonzero">
                            <path d="M4.48846864,7.97682091 C4.47907129,7.98922274 4.46967395,8.00218404 4.46548934,8.01784953 L3.74097375,10.7643051 C3.69865864,10.9241862 3.74201991,11.0964691 3.85642944,11.2179697 C3.94210582,11.3043909 4.05492811,11.3519281 4.17507345,11.3519281 C4.21477318,11.3519281 4.25447291,11.3470607 4.29364957,11.336244 L6.9310934,10.5925257 C6.93529604,10.5925257 6.93738836,10.5963116 6.94050878,10.5963116 C6.97079313,10.5963116 7.00059048,10.5849727 7.02306474,10.5611761 L14.0756021,3.27033506 C14.2850674,3.05349882 14.4,2.75805548 14.4,2.43668953 C14.4,2.07239272 14.2505984,1.70837563 13.9888796,1.43857518 L13.3228404,0.74886549 C13.0616807,0.478263114 12.7090548,0.323529291 12.3569699,0.323529291 C12.0461901,0.323529291 11.7604458,0.442363082 11.5504214,0.658658483 L4.49891214,7.95143913 C4.49162513,7.95843262 4.4936994,7.96870843 4.48846864,7.97682091 M13.3855194,2.55632525 L12.6850113,3.28008869 L11.5493753,2.08725626 L12.2399811,1.3732278 C12.3491418,1.25982097 12.5606813,1.27630702 12.6860755,1.40644232 L13.3525836,2.09617066 C13.4220987,2.16800802 13.4617804,2.26358607 13.4617804,2.35810108 C13.4612934,2.43562652 13.4346165,2.5058414 13.3855194,2.55632525 M5.74269878,8.09132804 L10.8316416,2.82935203 L11.9678187,4.02298638 L6.88827324,9.27466794 L5.74269878,8.09132804 Z M4.81548188,10.2247415 L5.18322297,8.82909716 L6.16424465,9.84343645 L4.81548188,10.2247415 Z" id="形状"></path>
                            <path d="M13.832173,5.44561636 C13.5652234,5.44561636 13.3463428,5.67002424 13.3453327,5.94980211 L13.3453327,12.7472741 C13.3453327,13.1037382 13.0653242,13.3932324 12.7200213,13.3932324 L1.59872137,13.3932324 C1.25395958,13.3932324 0.972904967,13.1037568 0.972904967,12.7472741 L0.972904967,1.65246484 C0.972904967,1.29570236 1.25395958,1.00594709 1.59872137,1.00594709 L8.7614837,1.00594709 C9.02996644,1.00594709 9.24783697,0.780476192 9.24783697,0.502824349 C9.24783697,0.22576929 9.02996642,0 8.7614837,0 L1.52455268,0 C0.684058312,0 0,0.706736573 0,1.5763008 L0,12.823979 C0,13.6935432 0.684058312,14.4 1.52455268,14.4 L12.7936669,14.4 C13.6347205,14.4 14.3185082,13.6935432 14.3185082,12.823979 L14.3185082,5.94655713 C14.317408,5.67002426 14.0991045,5.44561636 13.832173,5.44561636" id="路径"></path>
                        </g>
                    </g>
                </g>
            </g>
        </g>
    </g>
</svg>