<?xml version="1.0" encoding="UTF-8"?>
<svg width="16px" height="16px" viewBox="0 0 16 16" version="1.1" xmlns="http://www.w3.org/2000/svg" xmlns:xlink="http://www.w3.org/1999/xlink">
    <title></title>
    <g id="页面-1" stroke="none" stroke-width="0" fill="none" fill-rule="evenodd">
        <g id="数据开发-离线数据作业" transform="translate(-710.000000, -305.000000)">
            <g id="作业" transform="translate(634.000000, 217.000000)">
                <g id="调度策略" transform="translate(20.000000, 86.000000)">
                    <g id="查看" transform="translate(56.000000, 2.000000)">
                        <rect id="矩形" fill-opacity="0" fill="currentColor" x="0" y="0" width="16" height="16"></rect>
                        <g id="编组" transform="translate(0.800000, 0.800000)" fill="currentColor" fill-rule="nonzero">
                            <path d="M4.44240102,14.4000085 L0.555840129,14.4000085 C0.24864006,14.4000085 0,14.1528032 0,13.8480032 L0,0.552000122 C0,0.247680055 0.24864006,0 0.555840129,0 L8.98848205,0 C9.13728209,0 9.27744212,0.0576000183 9.38208214,0.160800039 L11.5454426,2.31024053 C11.6486427,2.41488055 11.7072027,2.55408059 11.7072027,2.70144062 L11.7072027,5.09280116 C11.7072027,5.39808123 11.4585626,5.64480128 11.1513625,5.64480128 C10.8441625,5.64480128 10.5960024,5.39808123 10.5960024,5.09280116 L10.5960024,2.93040067 L8.75664199,1.10448025 L1.11024026,1.10448025 L1.11024026,13.296963 L4.44096102,13.296963 C4.74816109,13.296963 4.99680115,13.5441631 4.99680115,13.8489632 C4.99654749,13.995613 4.93794868,14.1361344 4.83393669,14.239516 C4.7299247,14.3428976 4.58904973,14.4006411 4.44240102,14.4000085 Z M12.2712028,11.7019227 C12.0475227,11.7019227 11.8440027,11.8363227 11.7590427,12.0417627 C11.6726427,12.2472028 11.7206427,12.4843228 11.8790427,12.6417629 L13.4496031,14.2027232 C13.6676193,14.419014 14.019267,14.419014 14.2372833,14.2027232 C14.3414063,14.0997533 14.4,13.9594023 14.4,13.8129631 C14.4,13.666524 14.3414063,13.5261729 14.2372833,13.4232031 L12.6667229,11.8627227 C12.5606248,11.7600118 12.4188718,11.7023816 12.2712028,11.7019227 L12.2712028,11.7019227 Z M5.17680118,6.00000136 L2.95584068,6.00000136 C2.64864061,6.00000136 2.40000055,6.24720142 2.40000055,6.5520015 C2.40000055,6.85728157 2.64864061,7.10448162 2.95584068,7.10448162 L5.17680118,7.10448162 C5.48400125,7.10448162 5.7326413,6.85728156 5.7326413,6.55248149 C5.7326413,6.24720142 5.48400125,6.00000136 5.17680118,6.00000136 Z M7.39824168,3.60000083 L2.95584068,3.60000083 C2.64864061,3.60000083 2.40000055,3.84720087 2.40000055,4.15200095 C2.40000055,4.45728102 2.64864061,4.70448107 2.95584068,4.70448107 L7.39824168,4.70448107 C7.70544175,4.70448107 7.95408181,4.45728101 7.95408181,4.15248094 C7.95408181,3.84720087 7.70544175,3.60000083 7.39824168,3.60000083 L7.39824168,3.60000083 Z M5.17680118,8.40000191 L2.95584068,8.40000191 C2.64864061,8.40000191 2.40000055,8.64720197 2.40000055,8.95200203 C2.40000055,9.25728211 2.64864061,9.50448217 2.95584068,9.50448217 L5.17680118,9.50448217 C5.48400125,9.50448217 5.7326413,9.25728211 5.7326413,8.95248204 C5.7326413,8.64720197 5.48400125,8.40000191 5.17680118,8.40000191 Z M9.98304227,7.71360176 C11.2084826,7.71360176 12.2044828,8.70336199 12.2044828,9.92064226 C12.2044828,11.1379225 11.2080026,12.1281628 9.98304227,12.1281628 C8.75808199,12.1281628 7.76208176,11.1379225 7.76208176,9.92064226 C7.76208176,8.70336197 8.75856199,7.71312176 9.98304227,7.71312176 L9.98304227,7.71360176 Z M9.98304227,6.61056151 C8.14272186,6.61056151 6.65184152,8.09328185 6.65184152,9.92064226 C6.65184152,11.7494427 8.14416186,13.230723 9.98304227,13.230723 C11.8238427,13.230723 13.314243,11.7480027 13.314243,9.92064226 C13.314243,8.09328185 11.8224027,6.61056151 9.98304227,6.61056151 Z" id="形状"></path>
                        </g>
                    </g>
                </g>
            </g>
        </g>
    </g>
</svg>